# xmcd CD database file
#
# Track frame offsets:
#	150
#	19425
#	34317
#	50202
#	66322
#	80965
#	104127
#	120017
#	132265
#	145945
#	159827
#	170947
#	185142
#	197140
#	221202
#	235235
#	249382
#	263127
#	275240
#	287407
#
# Disc length: 3969 seconds
#
# Revision: 2
# Processed by: cddbd v1.5.2PL0 Copyright (c) Steve Scherf et al.
# Submitted via: CDex 1.51
#
DISCID=470f7f14
DTITLE=Art Pepper - Vol. 229 - The Young Art Pepper with Stan Kenton and Shorty Rogers
DYEAR=1965
DGENRE=Jazz
TTITLE0=Blues Express
TTITLE1=Short Stop
TTITLE2=Bunny
TTITLE3=Morpo
TTITLE4=Pirouette
TTITLE5=At Home with Sweets
TTITLE6=Chiquito Loco
TTITLE7=Sweetheart of Sigmund Freud
TTITLE8=Over the Rainbow
TTITLE9=Popo
TTITLE10=Didi
TTITLE11=Sam and the Lady
TTITLE12=Apropos
TTITLE13=Art Pepper
TTITLE14=Dynaflow
TTITLE15=Street of Dreams
TTITLE16=Jump for Joe
TTITLE17=Sambo
TTITLE18=Jolly Rogers
TTITLE19=Harlem Folk Dance
EXTD=YEAR: 1965
EXTT0=(S. Rogers)
EXTT1=(S. Rogers)
EXTT2=(S. Rogers)
EXTT3=(S. Rogers)
EXTT4=(S. Rogers)
EXTT5=(S. Rogers)
EXTT6=(S. Rogers)
EXTT7=(S. Rogers)
EXTT8=(Harburg - Arlen)
EXTT9=(S. Rogers)
EXTT10=(S. Rogers)
EXTT11=(S. Rogers)
EXTT12=(S. Rogers)
EXTT13=(S. Rogers)
EXTT14=(S. Kenton)
EXTT15=
EXTT16=(G. Roland)
EXTT17=(S. Rogers)
EXTT18=(S. Rogers)
EXTT19=(S. Kenton)
PLAYORDER=
